# xmcd
#
# Track frame offsets:
#	187
#	19342
#	38290
#	58210
#	87065
#	104612
#	122670
#	145865
#	162800
#
# Disc length: 2474 seconds
#
# Revision: 4
# Processed by: cddbd v1.5.2PL0 Copyright (c) Steve Scherf et al.
# Submitted via: audiograbber 1.83.01
#
DISCID=6e09a809,8009a809
DTITLE=Billy and Lisa - Wake Up The Neighbors MCAD42065
DYEAR=1988
DGENRE=blues
TTITLE0=Should've Known Better
TTITLE1=Young Republicans
TTITLE2=Turning My Back
TTITLE3=The Last Time
TTITLE4=Where Are You Going
TTITLE5=Talk About It
TTITLE6=Habit
TTITLE7=Simone
TTITLE8=All Gone Now
EXTD=
EXTT0=
EXTT1=
EXTT2=
EXTT3=
EXTT4=
EXTT5=
EXTT6=
EXTT7=
EXTT8=
PLAYORDER=
